# xmcd
# 
# Track frame offsets:
#     150
#     22608
#     42733
# 
# Disc length: 847
# 
# Revision: 4
# Processed by: cddbd v1.5.2PL0 Copyright (c) Steve Scherf et al.
# Submitted via: BonkEnc v1.0
# 
DISCID=1a034d03
DTITLE=桑田佳祐 - 風の詩を聴かせて
DYEAR=2000
DGENRE=Pop
TTITLE0=風の詩を聴かせて
TTITLE1=NUMBER WONDA GIRL
TTITLE2=MY LITTLE HOMETOWN
EXTD=YEAR: 2000
EXTT0=
EXTT1=
EXTT2=
PLAYORDER=
